<?xml version="1.0" standalone="no"?>
<svg viewBox="0 0 200 200" xmlns="http://www.w3.org/2000/svg">
  <path fill="#001510" d="M14.2,-26.9C20.8,-20.9,30,-21.7,32.4,-18.4C34.8,-15.1,30.3,-7.5,29,-0.8C27.7,6,29.5,12.1,29.6,19.7C29.7,27.4,28.1,36.7,22.9,39.4C17.7,42.1,8.8,38.2,3.9,31.5C-1.1,24.8,-2.1,15.2,-14.3,16.5C-26.5,17.8,-49.9,30,-54.1,29.1C-58.4,28.2,-43.7,14.1,-34.2,5.5C-24.8,-3.2,-20.7,-6.4,-16.1,-6.8C-11.6,-7.3,-6.6,-5.1,-3.8,-13.3C-1.1,-21.6,-0.5,-40.3,1.6,-43.2C3.8,-46,7.7,-33,14.2,-26.9Z" transform="translate(100 100)" />
</svg>
