<?xml version="1.0" standalone="no"?>
<svg viewBox="0 0 200 200" xmlns="http://www.w3.org/2000/svg">
  <path fill="#001510" d="M29.4,-48.8C34.5,-48,32.5,-32.8,31,-22.2C29.5,-11.7,28.6,-5.9,37.7,5.3C46.9,16.4,66.2,32.9,69.9,47.3C73.6,61.7,61.8,74.1,47.5,69.4C33.3,64.7,16.6,42.9,4.7,34.7C-7.2,26.6,-14.4,32,-26.4,35.4C-38.5,38.8,-55.3,40.3,-60,34C-64.6,27.8,-57,13.9,-53.9,1.8C-50.9,-10.3,-52.3,-20.7,-51.1,-32.8C-49.8,-45,-45.9,-58.9,-37,-57.5C-28,-56,-14,-39.3,-0.9,-37.6C12.1,-36,24.3,-49.6,29.4,-48.8Z" transform="translate(100 100)" />
</svg>
