<?xml version="1.0" standalone="no"?><svg xmlns="http://www.w3.org/2000/svg" viewBox="0 0 1440 320"><path fill="#ecf4fb" fill-opacity="1" d="M0,0L40,16C80,32,160,64,240,96C320,128,400,160,480,170.7C560,181,640,171,720,186.7C800,203,880,245,960,224C1040,203,1120,117,1200,101.3C1280,85,1360,139,1400,165.3L1440,192L1440,320L1400,320C1360,320,1280,320,1200,320C1120,320,1040,320,960,320C880,320,800,320,720,320C640,320,560,320,480,320C400,320,320,320,240,320C160,320,80,320,40,320L0,320Z"></path></svg>